<svg xmlns="http://www.w3.org/2000/svg" viewBox="0 0 590.3 590.4"><defs><style>.cls-1{fill:#c6fbff;}</style></defs><g id="Layer_2" data-name="Layer 2"><g id="Layer_1-2" data-name="Layer 1"><path class="cls-1" d="M318.5,271.8l-17.1,8.1-6.3-17.8-6.3,17.8-17.1-8.1,8.1,17.1L262,295.2l17.8,6.3-8.1,17.1,17.1-8.1,6.3,17.8,6.3-17.8,17.1,8.1-8.1-17.1,17.8-6.3-17.8-6.3Zm-3.8,23.4-5.8,2.1-4.7,1.7,2.1,4.5,2.6,5.6-5.6-2.6-4.5-2.2-1.7,4.7-2.1,5.8-2.1-5.8-1.7-4.7-4.5,2.2-5.6,2.6,2.6-5.6,2.2-4.5-4.7-1.7-5.8-2.1,5.8-2.1,4.7-1.7-2.2-4.5-2.6-5.6,5.6,2.6,4.5,2.2,1.7-4.7,2.1-5.8,2.1,5.8,1.7,4.7,4.5-2.2,5.6-2.6-2.6,5.6-2.1,4.5,4.7,1.7,5.8,2.1Z"/><path class="cls-1" d="M590.3,273.7l-26.4,2.9-10.7-24.3-10.7,24.3-26.4-2.9,9.4,12.8H489.6L523.1,253a8.7,8.7,0,1,0-12.3-12.3l-45.7,45.7H437.6l33.5-33.5a8.7,8.7,0,1,0-12.3-12.3l-45.7,45.7H353.3l-9.5-3.4,44.6-18.5,5.2,17.7,9.9-16.2,18.5,4.5-9.1-16.7L426,240l-19-.4-5.3-18.2-9.9,16.2-18.5-4.5,9.1,16.7-1.9,2-42.4,17.5,4.4-9.2L381.6,221h71.1a8.7,8.7,0,0,0,0-17.4H398.9l19.4-19.4h71.2a8.7,8.7,0,0,0,0-17.4H435.7l28.6-28.6,2.4,15.7,16.7-20.7,24.8,9.6L498.6,118l20.7-16.7L493,97.2l-4.3-26L472,91.9l-24.8-9.6,9.6,24.8-20.7,16.7,15.7,2.4-25.4,25.4V104.3a8.7,8.7,0,1,0-17.4,0V169l-19.4,19.4V141.1a8.7,8.7,0,0,0-17.4,0v64.7l-42.3,42.3-9.2,4.4,18.5-44.6,16.2,8.9-4.5-18.4,16.2-9.9-18.2-5.3-.4-19-13.7,13.1-16.7-9.1,4.5,18.5-16.2,9.9,18.2,5.3.1,2.8-17.5,42.4-3.4-9.6V182.3L354.1,132a8.7,8.7,0,1,0-12.3-12.3l-38,38V130.2l50.3-50.6a8.7,8.7,0,1,0-12.3-12.3l-38,38V64.9l12.8,9.4-2.9-26.4L338,37.2,313.7,26.5,316.6.1,295.1,15.7,273.6,0l2.9,26.4L252.2,37.1l24.3,10.7-2.9,26.4,12.8-9.4v35.9L252.9,67.2a8.7,8.7,0,1,0-12.3,12.3l45.7,45.7v27.5l-33.5-33.5a8.7,8.7,0,1,0-12.3,12.3l45.7,45.7v60l-3.4,9.5-18.5-44.6,17.7-5.2L265.8,187l4.5-18.4-16.7,9.1-13.5-13.1-.4,19-18.2,5.3,16.2,9.9-4.5,18.4,16.7-9.1,2,1.9,17.5,42.4-9.2-4.4-39-39V137.8a8.7,8.7,0,1,0-17.4,0v53.8l-19.4-19.4V101a8.7,8.7,0,0,0-17.4,0v53.8l-28.6-28.6,15.7-2.4-20.8-16.6,9.6-24.8L118.1,92,101.4,71.3,97.3,97.6,71,101.7l20.7,16.7-9.6,24.8,24.8-9.6,16.7,20.7,2.4-15.7L151.4,164H104.1a8.7,8.7,0,1,0,0,17.4h64.7l19.4,19.4H140.9a8.7,8.7,0,0,0,0,17.4h64.7l42.3,42.3,4.3,9.1-44.6-18.5,8.9-16.2L198,239.4l-9.9-16.2-5.3,18.2-19,.4,13.1,13.7-9.1,16.7,18.5-4.5,9.9,16.2,5.3-18.2,2.8-.1,42.4,17.5-9.6,3.4H181.9l-50.4-50.3a8.7,8.7,0,1,0-12.3,12.3l38,38H129.7L79.5,236.2a8.7,8.7,0,1,0-12.3,12.3l38.1,38H64.8l9.4-12.8-26.4,2.9L37.1,252.3,26.4,276.6,0,273.7l15.7,21.5L0,316.7l26.4-2.9,10.7,24.3,10.7-24.3,26.4,2.9-9.4-12.8h35.9L67.2,337.4a8.69,8.69,0,0,0,0,12.3,8.69,8.69,0,0,0,12.2,0L125.1,304h27.5l-33.5,33.5a8.69,8.69,0,0,0,0,12.3,8.69,8.69,0,0,0,12.2,0L177,304.1h60.1l9.5,3.4L202,326l-5.2-17.7-9.9,16.2L168.4,320l9.1,16.7-13.1,13.7,19,.4,5.3,18.2,9.9-16.2,18.5,4.5L208,340.6l1.9-2,42.4-17.5-4.4,9.3-39,39H137.8a8.7,8.7,0,0,0,0,17.4h53.8l-19.5,19.1H100.9a8.7,8.7,0,1,0,0,17.4h53.8l-28.6,28.6-2.4-15.7L107.1,457l-24.8-9.6,9.6,24.8L71.2,488.9,97.5,493l4.1,26.3,16.7-20.7,24.8,9.6-9.6-24.8,20.7-16.7-15.7-2.4,25.4-25.4v47.3a8.7,8.7,0,0,0,17.4,0V421.5l19.4-19.4v47.3a8.7,8.7,0,1,0,17.4,0V384.7l42.3-42.3,9.1-4.3L251,382.7l-16.2-8.9,4.5,18.4-16.2,9.9,18.2,5.3.4,19,13.7-13.1,16.7,9.1-4.5-18.5,16.2-9.9-18.2-5.3-.1-2.8L283,343.5l3.4,9.6v55.2l-50.3,50.5a8.69,8.69,0,0,0,0,12.3,8.69,8.69,0,0,0,12.2,0l38-38v27.5l-50.2,50.2a8.69,8.69,0,0,0,0,12.3,8.69,8.69,0,0,0,12.2,0l38-38v40.5l-12.8-9.4,2.9,26.4-24.3,10.7L276.4,564l-2.9,26.4L295,574.7l21.5,15.7L313.6,564l24.3-10.7-24.3-10.7,2.9-26.4-12.8,9.4V489.7l33.5,33.5a8.69,8.69,0,0,0,12.2,0,8.69,8.69,0,0,0,0-12.3l-45.7-45.7V437.7l33.5,33.5a8.69,8.69,0,0,0,12.2,0,8.69,8.69,0,0,0,0-12.3l-45.7-45.7v-60l3.4-9.5,18.5,44.6-17.7,5.2,16.2,9.9-4.5,18.5,16.7-9.1L350,425.9l.4-19,18.2-5.3-16.2-9.9,4.5-18.5-16.7,9.1-2-1.9L320.7,338l9.2,4.4,39,39v71.2a8.7,8.7,0,1,0,17.4,0V398.8l19.4,19.4v71.1a8.7,8.7,0,0,0,17.4,0V435.5l28.6,28.6L436,466.5l20.7,16.7L447.1,508l24.8-9.6,16.7,20.7,4.1-26.3,26.3-4.1L498.3,472l9.6-24.8-24.8,9.6-16.6-20.6-2.4,15.7-25.4-25.4H486a8.7,8.7,0,1,0,0-17.4H421.3l-19.4-19.4h47.3a8.7,8.7,0,0,0,0-17.4H384.5L342.2,330l-4.3-9.1,44.6,18.5-8.9,16.2,18.4-4.5,9.9,16.2,5.3-18.2,19-.4L413.1,335l9.1-16.7-18.5,4.5-9.9-16.2-5.3,18.2-2.8.1-42.4-17.5,9.6-3.4h55.2l50.3,50.3a8.69,8.69,0,0,0,12.2,0,8.69,8.69,0,0,0,0-12.3l-38-38h27.5l50.3,50.3a8.69,8.69,0,0,0,12.2,0,8.69,8.69,0,0,0,0-12.3l-38-38h40.5l-9.4,12.8,26.4-2.9,10.7,24.3,10.7-24.3,26.4,2.9-15.2-21.6,15.6-21.5ZM329.4,300.3l-11.8,4.2,5.4,11.3,6.6,13.9-13.9-6.6-11.3-5.4-4.2,11.8L295.1,344,290,329.5l-4.2-11.8-11.3,5.4-13.9,6.6,6.6-13.9,5.4-11.3-11.8-4.2-14.5-5.1,14.5-5.1,11.8-4.2-5.4-11.3-6.6-13.9,13.9,6.6,11.3,5.4,4.2-11.8,5.1-14.5,5.1,14.5,4.2,11.8,11.3-5.4,13.9-6.6L323,274.6l-5.4,11.3,11.8,4.2,14.5,5.1-14.5,5.1Z"/></g></g></svg>