<?xml version="1.0" encoding="utf-8"?>
<!-- Generator: Adobe Illustrator 24.2.3, SVG Export Plug-In . SVG Version: 6.00 Build 0)  -->
<svg version="1.1" id="Layer_1" xmlns="http://www.w3.org/2000/svg" xmlns:xlink="http://www.w3.org/1999/xlink" x="0px" y="0px"
	 viewBox="0 0 792 612" style="enable-background:new 0 0 792 612;" xml:space="preserve">
<style type="text/css">
	.st0{fill:#FFFFFF;}
</style>
<g>
	<path class="st0" d="M419.4,282.6l-17.1,8.1l-6.3-17.8l-6.3,17.8l-17.1-8.1l8.1,17.1l-17.8,6.3l17.8,6.3l-8.1,17.1l17.1-8.1
		l6.3,17.8l6.3-17.8l17.1,8.1l-8.1-17.1l17.8-6.3l-17.8-6.3L419.4,282.6z M415.6,306l-5.8,2.1l-4.7,1.7l2.1,4.5l2.6,5.6l-5.6-2.6
		l-4.5-2.2l-1.7,4.7l-2.1,5.8l-2.1-5.8l-1.7-4.7l-4.5,2.2l-5.6,2.6l2.6-5.6l2.2-4.5l-4.7-1.7l-5.8-2.1l5.8-2.1l4.7-1.7l-2.2-4.5
		l-2.6-5.6l5.6,2.6l4.5,2.2l1.7-4.7l2.1-5.8l2.1,5.8l1.7,4.7l4.5-2.2l5.6-2.6l-2.6,5.6l-2.1,4.5l4.7,1.7L415.6,306L415.6,306z"/>
	<path class="st0" d="M691.2,284.5l-26.4,2.9l-10.7-24.3l-10.7,24.3l-26.4-2.9l9.4,12.8h-35.9l33.5-33.5c3.4-3.4,3.4-8.9,0-12.3
		c-3.4-3.4-8.9-3.4-12.3,0l-45.7,45.7h-27.5l33.5-33.5c3.4-3.4,3.4-8.9,0-12.3c-3.4-3.4-8.9-3.4-12.3,0l-45.7,45.7l-59.8,0l-9.5-3.4
		l44.6-18.5l5.2,17.7l9.9-16.2l18.5,4.5l-9.1-16.7l13.1-13.7l-19-0.4l-5.3-18.2l-9.9,16.2l-18.5-4.5l9.1,16.7l-1.9,2l-42.4,17.5
		l4.4-9.2l39.1-39.1h71.1c4.8,0,8.7-3.9,8.7-8.7s-3.9-8.7-8.7-8.7h-53.8l19.4-19.4h71.2c4.8,0,8.7-3.9,8.7-8.7
		c0-4.8-3.9-8.7-8.7-8.7h-53.8l28.6-28.6l2.4,15.7l16.7-20.7l24.8,9.6l-9.6-24.8l20.7-16.7l-26.3-4.1L589.6,82l-16.7,20.7l-24.8-9.6
		l9.6,24.8L537,134.6l15.7,2.4l-25.4,25.4v-47.3c0-4.8-3.9-8.7-8.7-8.7c-4.8,0-8.7,3.9-8.7,8.7v64.7l-19.4,19.4v-47.3
		c0-4.8-3.9-8.7-8.7-8.7c-4.8,0-8.7,3.9-8.7,8.7l0,64.7l-42.3,42.3l-9.2,4.4l18.5-44.6l16.2,8.9l-4.5-18.4l16.2-9.9l-18.2-5.3
		l-0.4-19l-13.7,13.1l-16.7-9.1l4.5,18.5l-16.2,9.9l18.2,5.3l0.1,2.8l-17.5,42.4l-3.4-9.6v-55.2l50.3-50.3c3.4-3.4,3.4-8.9,0-12.3
		c-3.4-3.4-8.9-3.4-12.3,0l-38,38v-27.5L455,90.4c3.4-3.4,3.4-8.9,0-12.3c-3.4-3.4-8.9-3.4-12.3,0l-38,38V75.7l12.8,9.4l-2.9-26.4
		l24.3-10.7l-24.3-10.7l2.9-26.4L396,26.5l-21.5-15.7l2.9,26.4l-24.3,10.7l24.3,10.7l-2.9,26.4l12.8-9.4v35.9l-33.5-33.5
		c-3.4-3.4-8.9-3.4-12.3,0c-3.4,3.4-3.4,8.9,0,12.3l45.7,45.7v27.5l-33.5-33.5c-3.4-3.4-8.9-3.4-12.3,0c-3.4,3.4-3.4,8.9,0,12.3
		l45.7,45.7V248l-3.4,9.5l-18.5-44.6l17.7-5.2l-16.2-9.9l4.5-18.4l-16.7,9.1L341,175.4l-0.4,19l-18.2,5.3l16.2,9.9l-4.5,18.4
		l16.7-9.1l2,1.9l17.5,42.4l-9.2-4.4l-39-39v-71.2c0-4.8-3.9-8.7-8.7-8.7c-4.8,0-8.7,3.9-8.7,8.7v53.8L285.3,183v-71.2
		c0-4.8-3.9-8.7-8.7-8.7c-4.8,0-8.7,3.9-8.7,8.7v53.8L239.3,137l15.7-2.4L234.2,118l9.6-24.8l-24.8,9.6l-16.7-20.7l-4.1,26.3
		l-26.3,4.1l20.7,16.7l-9.6,24.8l24.8-9.6l16.7,20.7l2.4-15.7l25.4,25.4h-47.3c-4.8,0-8.7,3.9-8.7,8.7c0,4.8,3.9,8.7,8.7,8.7h64.7
		l19.4,19.4h-47.3c-4.8,0-8.7,3.9-8.7,8.7c0,4.8,3.9,8.7,8.7,8.7l64.7,0l42.3,42.3l4.3,9.1l-44.6-18.5l8.9-16.2l-18.5,4.5l-9.9-16.2
		l-5.3,18.2l-19,0.4l13.1,13.7l-9.1,16.7l18.5-4.5l9.9,16.2l5.3-18.2l2.8-0.1l42.4,17.5l-9.6,3.4h-55.2L232.4,247
		c-3.4-3.4-8.9-3.4-12.3,0c-3.4,3.4-3.4,8.9,0,12.3l38,38l-27.5,0L180.4,247c-3.4-3.4-8.9-3.4-12.3,0c-3.4,3.4-3.4,8.9,0,12.3
		l38.1,38h-40.5l9.4-12.8l-26.4,2.9l-10.7-24.3l-10.7,24.3l-26.4-2.9l15.7,21.5l-15.7,21.5l26.4-2.9l10.7,24.3l10.7-24.3l26.4,2.9
		l-9.4-12.8h35.9l-33.5,33.5c-3.4,3.4-3.4,8.9,0,12.3c1.7,1.7,3.9,2.5,6.1,2.5c2.2,0,4.4-0.8,6.1-2.5l45.7-45.7l27.5,0l-33.5,33.5
		c-3.4,3.4-3.4,8.9,0,12.3c1.7,1.7,3.9,2.5,6.1,2.5s4.4-0.8,6.1-2.5l45.7-45.7H338l9.5,3.4l-44.6,18.5l-5.2-17.7l-9.9,16.2
		l-18.5-4.5l9.1,16.7l-13.1,13.7l19,0.4l5.3,18.2l9.9-16.2l18.5,4.5l-9.1-16.7l1.9-2l42.4-17.5l-4.4,9.3l-39,39h-71.1
		c-4.8,0-8.7,3.9-8.7,8.7s3.9,8.7,8.7,8.7h53.8L273,416.7h-71.2c-4.8,0-8.7,3.9-8.7,8.7c0,4.8,3.9,8.7,8.7,8.7h53.8L227,462.7
		l-2.4-15.7L208,467.8l-24.8-9.6l9.6,24.8l-20.7,16.7l26.3,4.1l4.1,26.3l16.7-20.7l24.8,9.6l-9.6-24.8l20.7-16.7l-15.7-2.4
		l25.4-25.4v47.3c0,4.8,3.9,8.7,8.7,8.7s8.7-3.9,8.7-8.7v-64.7l19.4-19.4v47.3c0,4.8,3.9,8.7,8.7,8.7c4.8,0,8.7-3.9,8.7-8.7l0-64.7
		l42.3-42.3l9.1-4.3l-18.5,44.6l-16.2-8.9l4.5,18.4l-16.2,9.9l18.2,5.3l0.4,19l13.7-13.1l16.7,9.1l-4.5-18.5l16.2-9.9l-18.2-5.3
		l-0.1-2.8l17.5-42.4l3.4,9.6v55.2L337,469.6c-3.4,3.4-3.4,8.9,0,12.3c1.7,1.7,3.9,2.5,6.1,2.5c2.2,0,4.4-0.8,6.1-2.5l38-38v27.5
		L337,521.6c-3.4,3.4-3.4,8.9,0,12.3c1.7,1.7,3.9,2.5,6.1,2.5c2.2,0,4.4-0.8,6.1-2.5l38-38v40.5l-12.8-9.4l2.9,26.4l-24.3,10.7
		l24.3,10.7l-2.9,26.4l21.5-15.7l21.5,15.7l-2.9-26.4l24.3-10.7l-24.3-10.7l2.9-26.4l-12.8,9.4v-35.9l33.5,33.5
		c1.7,1.7,3.9,2.5,6.1,2.5c2.2,0,4.4-0.8,6.1-2.5c3.4-3.4,3.4-8.9,0-12.3l-45.7-45.7v-27.5l33.5,33.5c1.7,1.7,3.9,2.5,6.1,2.5
		s4.4-0.8,6.1-2.5c3.4-3.4,3.4-8.9,0-12.3l-45.7-45.7V364l3.4-9.5l18.5,44.6l-17.7,5.2l16.2,9.9l-4.5,18.5l16.7-9.1l13.7,13.1
		l0.4-19l18.2-5.3l-16.2-9.9l4.5-18.5l-16.7,9.1l-2-1.9l-17.5-42.4l9.2,4.4l39,39v71.2c0,4.8,3.9,8.7,8.7,8.7c4.8,0,8.7-3.9,8.7-8.7
		v-53.8l19.4,19.4v71.1c0,4.8,3.9,8.7,8.7,8.7c4.8,0,8.7-3.9,8.7-8.7v-53.8l28.6,28.6l-15.7,2.4l20.7,16.7l-9.6,24.8l24.8-9.6
		l16.7,20.7l4.1-26.3l26.3-4.1l-20.7-16.7l9.6-24.8l-24.8,9.6L567.4,447l-2.4,15.7l-25.4-25.4l47.3,0c4.8,0,8.7-3.9,8.7-8.7
		c0-4.8-3.9-8.7-8.7-8.7l-64.7,0l-19.4-19.4l47.3,0c4.8,0,8.7-3.9,8.7-8.7s-3.9-8.7-8.7-8.7h-64.7l-42.3-42.3l-4.3-9.1l44.6,18.5
		l-8.9,16.2l18.4-4.5l9.9,16.2l5.3-18.2l19-0.4l-13.1-13.7l9.1-16.7l-18.5,4.5l-9.9-16.2l-5.3,18.2l-2.8,0.1l-42.4-17.5l9.6-3.4
		h55.2l50.3,50.3c1.7,1.7,3.9,2.5,6.1,2.5c2.2,0,4.4-0.8,6.1-2.5c3.4-3.4,3.4-8.9,0-12.3l-38-38h27.5l50.3,50.3
		c1.7,1.7,3.9,2.5,6.1,2.5c2.2,0,4.4-0.8,6.1-2.5c3.4-3.4,3.4-8.9,0-12.3l-38-38l40.5,0l-9.4,12.8l26.4-2.9l10.7,24.3l10.7-24.3
		l26.4,2.9L675.6,306L691.2,284.5L691.2,284.5z M430.3,311.1l-11.8,4.2l5.4,11.3l6.6,13.9l-13.9-6.6l-11.3-5.4l-4.2,11.8l-5.1,14.5
		l-5.1-14.5l-4.2-11.8l-11.3,5.4l-13.9,6.6l6.6-13.9l5.4-11.3l-11.8-4.2l-14.5-5.1l14.5-5.1l11.8-4.2l-5.4-11.3l-6.6-13.9l13.9,6.6
		l11.3,5.4l4.2-11.8l5.1-14.5l5.1,14.5l4.2,11.8l11.3-5.4l13.9-6.6l-6.6,13.9l-5.4,11.3l11.8,4.2l14.5,5.1L430.3,311.1L430.3,311.1z
		"/>
</g>
</svg>
